<svg width="109" height="27" viewBox="0 0 109 27" fill="none" xmlns="http://www.w3.org/2000/svg">
<path d="M11.8786 0.00634766C11.4877 0.00634766 11.1703 0.321427 11.1703 0.709518C11.1703 1.09761 11.4877 1.41275 11.8786 1.41275C12.2694 1.41275 12.5868 1.09761 12.5868 0.709518C12.5868 0.321427 12.2694 0.00634766 11.8786 0.00634766ZM14.4555 0.00634766C14.0646 0.00634766 13.7473 0.321427 13.7473 0.709518C13.7473 1.09761 14.0646 1.41275 14.4555 1.41275C14.8464 1.41275 15.1637 1.09761 15.1637 0.709518C15.1637 0.321427 14.8464 0.00634766 14.4555 0.00634766ZM17.0325 0.00634766C16.6416 0.00634766 16.3243 0.321427 16.3243 0.709518C16.3243 1.09761 16.6416 1.41275 17.0325 1.41275C17.4233 1.41275 17.7407 1.09761 17.7407 0.709518C17.7407 0.321427 17.4233 0.00634766 17.0325 0.00634766ZM6.72463 2.56403C6.33318 2.56403 6.01533 2.87958 6.01533 3.26825C6.01533 3.65692 6.33318 3.97253 6.72463 3.97253C7.11607 3.97253 7.43387 3.65692 7.43387 3.26825C7.43387 2.87958 7.11607 2.56403 6.72463 2.56403ZM22.1864 2.56403C21.795 2.56403 21.4772 2.87958 21.4772 3.26825C21.4772 3.65692 21.795 3.97253 22.1864 3.97253C22.5779 3.97253 22.8957 3.65692 22.8957 3.26825C22.8957 2.87958 22.5779 2.56403 22.1864 2.56403ZM9.30155 2.56502C8.91065 2.56502 8.5933 2.88012 8.5933 3.26825C8.5933 3.65638 8.91065 3.97154 9.30155 3.97154C9.69244 3.97154 10.0098 3.65638 10.0098 3.26825C10.0098 2.88012 9.69244 2.56502 9.30155 2.56502ZM19.6095 2.56502C19.2186 2.56502 18.9012 2.88012 18.9012 3.26825C18.9012 3.65638 19.2186 3.97154 19.6095 3.97154C20.0004 3.97154 20.3178 3.65638 20.3178 3.26825C20.3178 2.88012 20.0004 2.56502 19.6095 2.56502ZM11.8786 2.56508C11.4877 2.56508 11.1703 2.88016 11.1703 3.26825C11.1703 3.65634 11.4877 3.97142 11.8786 3.97142C12.2694 3.97142 12.5868 3.65634 12.5868 3.26825C12.5868 2.88016 12.2694 2.56508 11.8786 2.56508ZM14.4555 2.56508C14.0646 2.56508 13.7473 2.88016 13.7473 3.26825C13.7473 3.65634 14.0646 3.97142 14.4555 3.97142C14.8464 3.97142 15.1637 3.65634 15.1637 3.26825C15.1637 2.88016 14.8464 2.56508 14.4555 2.56508ZM17.0325 2.56508C16.6416 2.56508 16.3243 2.88016 16.3243 3.26825C16.3243 3.65634 16.6416 3.97142 17.0325 3.97142C17.4233 3.97142 17.7407 3.65634 17.7407 3.26825C17.7407 2.88016 17.4233 2.56508 17.0325 2.56508ZM4.14765 5.12276C3.7562 5.12276 3.43835 5.43831 3.43835 5.82698C3.43835 6.21566 3.7562 6.53126 4.14765 6.53126C4.53909 6.53126 4.85689 6.21566 4.85689 5.82698C4.85689 5.43831 4.53909 5.12276 4.14765 5.12276ZM24.7634 5.12276C24.372 5.12276 24.0542 5.43831 24.0542 5.82698C24.0542 6.21566 24.372 6.53126 24.7634 6.53126C25.1549 6.53126 25.4727 6.21566 25.4727 5.82698C25.4727 5.43831 25.1549 5.12276 24.7634 5.12276ZM6.72463 5.1237C6.33371 5.1237 6.01627 5.43883 6.01627 5.82698C6.01627 6.21514 6.33371 6.53033 6.72463 6.53033C7.11555 6.53033 7.43293 6.21514 7.43293 5.82698C7.43293 5.43883 7.11555 5.1237 6.72463 5.1237ZM22.1864 5.1237C21.7955 5.1237 21.4781 5.43883 21.4781 5.82698C21.4781 6.21514 21.7955 6.53033 22.1864 6.53033C22.5774 6.53033 22.8947 6.21514 22.8947 5.82698C22.8947 5.43883 22.5774 5.1237 22.1864 5.1237ZM9.30155 5.12382C8.91069 5.12382 8.59336 5.43896 8.59336 5.82705C8.59336 6.21514 8.91069 6.53022 9.30155 6.53022C9.6924 6.53022 10.0098 6.21514 10.0098 5.82705C10.0098 5.43896 9.6924 5.12382 9.30155 5.12382ZM11.8786 5.12382C11.4877 5.12382 11.1703 5.43896 11.1703 5.82705C11.1703 6.21514 11.4877 6.53022 11.8786 6.53022C12.2694 6.53022 12.5868 6.21514 12.5868 5.82705C12.5868 5.43896 12.2694 5.12382 11.8786 5.12382ZM14.4555 5.12382C14.0646 5.12382 13.7473 5.43896 13.7473 5.82705C13.7473 6.21514 14.0646 6.53022 14.4555 6.53022C14.8464 6.53022 15.1637 6.21514 15.1637 5.82705C15.1637 5.43896 14.8464 5.12382 14.4555 5.12382ZM17.0325 5.12382C16.6416 5.12382 16.3243 5.43896 16.3243 5.82705C16.3243 6.21514 16.6416 6.53022 17.0325 6.53022C17.4233 6.53022 17.7407 6.21514 17.7407 5.82705C17.7407 5.43896 17.4233 5.12382 17.0325 5.12382ZM19.6095 5.12382C19.2186 5.12382 18.9013 5.43896 18.9013 5.82705C18.9013 6.21514 19.2186 6.53022 19.6095 6.53022C20.0003 6.53022 20.3177 6.21514 20.3177 5.82705C20.3177 5.43896 20.0003 5.12382 19.6095 5.12382ZM4.14765 7.6825C3.75675 7.6825 3.43935 7.9976 3.43935 8.38573C3.43935 8.77385 3.75675 9.08901 4.14765 9.08901C4.53854 9.08901 4.85589 8.77385 4.85589 8.38573C4.85589 7.9976 4.53854 7.6825 4.14765 7.6825ZM24.7634 7.6825C24.3725 7.6825 24.0552 7.9976 24.0552 8.38573C24.0552 8.77385 24.3725 9.08901 24.7634 9.08901C25.1543 9.08901 25.4717 8.77385 25.4717 8.38573C25.4717 7.9976 25.1543 7.6825 24.7634 7.6825ZM6.72463 7.68254C6.33377 7.68254 6.01638 7.99762 6.01638 8.38571C6.01638 8.7738 6.33377 9.08888 6.72463 9.08888C7.11549 9.08888 7.43281 8.7738 7.43281 8.38571C7.43281 7.99762 7.11549 7.68254 6.72463 7.68254ZM9.30155 7.68254C8.91069 7.68254 8.59336 7.99762 8.59336 8.38571C8.59336 8.7738 8.91069 9.08888 9.30155 9.08888C9.6924 9.08888 10.0098 8.7738 10.0098 8.38571C10.0098 7.99762 9.6924 7.68254 9.30155 7.68254ZM11.8786 7.68254C11.4877 7.68254 11.1703 7.99762 11.1703 8.38571C11.1703 8.7738 11.4877 9.08888 11.8786 9.08888C12.2694 9.08888 12.5868 8.7738 12.5868 8.38571C12.5868 7.99762 12.2694 7.68254 11.8786 7.68254ZM14.4555 7.68254C14.0646 7.68254 13.7473 7.99762 13.7473 8.38571C13.7473 8.7738 14.0646 9.08888 14.4555 9.08888C14.8464 9.08888 15.1637 8.7738 15.1637 8.38571C15.1637 7.99762 14.8464 7.68254 14.4555 7.68254ZM17.0325 7.68254C16.6416 7.68254 16.3243 7.99762 16.3243 8.38571C16.3243 8.7738 16.6416 9.08888 17.0325 9.08888C17.4233 9.08888 17.7407 8.7738 17.7407 8.38571C17.7407 7.99762 17.4233 7.68254 17.0325 7.68254ZM19.6095 7.68254C19.2186 7.68254 18.9013 7.99762 18.9013 8.38571C18.9013 8.7738 19.2186 9.08888 19.6095 9.08888C20.0003 9.08888 20.3177 8.7738 20.3177 8.38571C20.3177 7.99762 20.0003 7.68254 19.6095 7.68254ZM22.1864 7.68254C21.7956 7.68254 21.4783 7.99762 21.4783 8.38571C21.4783 8.7738 21.7956 9.08888 22.1864 9.08888C22.5773 9.08888 22.8947 8.7738 22.8947 8.38571C22.8947 7.99762 22.5773 7.68254 22.1864 7.68254ZM1.57067 10.2413C1.17981 10.2413 0.862427 10.5564 0.862427 10.9444C0.862427 11.3325 1.17981 11.6476 1.57067 11.6476C1.96153 11.6476 2.27885 11.3325 2.27885 10.9444C2.27885 10.5564 1.96153 10.2413 1.57067 10.2413ZM4.14765 10.2413C3.75679 10.2413 3.4394 10.5564 3.4394 10.9444C3.4394 11.3325 3.75679 11.6476 4.14765 11.6476C4.53851 11.6476 4.85583 11.3325 4.85583 10.9444C4.85583 10.5564 4.53851 10.2413 4.14765 10.2413ZM6.72463 10.2413C6.33377 10.2413 6.01638 10.5564 6.01638 10.9444C6.01638 11.3325 6.33377 11.6476 6.72463 11.6476C7.11549 11.6476 7.43281 11.3325 7.43281 10.9444C7.43281 10.5564 7.11549 10.2413 6.72463 10.2413ZM9.30155 10.2413C8.91069 10.2413 8.59336 10.5564 8.59336 10.9444C8.59336 11.3325 8.91069 11.6476 9.30155 11.6476C9.6924 11.6476 10.0098 11.3325 10.0098 10.9444C10.0098 10.5564 9.6924 10.2413 9.30155 10.2413ZM11.8786 10.2413C11.4877 10.2413 11.1703 10.5564 11.1703 10.9444C11.1703 11.3325 11.4877 11.6476 11.8786 11.6476C12.2694 11.6476 12.5868 11.3325 12.5868 10.9444C12.5868 10.5564 12.2694 10.2413 11.8786 10.2413ZM14.4555 10.2413C14.0646 10.2413 13.7473 10.5564 13.7473 10.9444C13.7473 11.3325 14.0646 11.6476 14.4555 11.6476C14.8464 11.6476 15.1637 11.3325 15.1637 10.9444C15.1637 10.5564 14.8464 10.2413 14.4555 10.2413ZM17.0325 10.2413C16.6416 10.2413 16.3243 10.5564 16.3243 10.9444C16.3243 11.3325 16.6416 11.6476 17.0325 11.6476C17.4233 11.6476 17.7407 11.3325 17.7407 10.9444C17.7407 10.5564 17.4233 10.2413 17.0325 10.2413ZM19.6095 10.2413C19.2186 10.2413 18.9013 10.5564 18.9013 10.9444C18.9013 11.3325 19.2186 11.6476 19.6095 11.6476C20.0003 11.6476 20.3177 11.3325 20.3177 10.9444C20.3177 10.5564 20.0003 10.2413 19.6095 10.2413ZM22.1864 10.2413C21.7956 10.2413 21.4783 10.5564 21.4783 10.9444C21.4783 11.3325 21.7956 11.6476 22.1864 11.6476C22.5773 11.6476 22.8947 11.3325 22.8947 10.9444C22.8947 10.5564 22.5773 10.2413 22.1864 10.2413ZM24.7634 10.2413C24.3726 10.2413 24.0552 10.5564 24.0552 10.9444C24.0552 11.3325 24.3726 11.6476 24.7634 11.6476C25.1543 11.6476 25.4717 11.3325 25.4717 10.9444C25.4717 10.5564 25.1543 10.2413 24.7634 10.2413ZM27.3404 10.2413C26.9495 10.2413 26.6322 10.5564 26.6322 10.9444C26.6322 11.3325 26.9495 11.6476 27.3404 11.6476C27.7313 11.6476 28.0486 11.3325 28.0486 10.9444C28.0486 10.5564 27.7313 10.2413 27.3404 10.2413ZM1.57067 12.8C1.17981 12.8 0.862427 13.1151 0.862427 13.5032C0.862427 13.8913 1.17981 14.2064 1.57067 14.2064C1.96153 14.2064 2.27885 13.8913 2.27885 13.5032C2.27885 13.1151 1.96153 12.8 1.57067 12.8ZM4.14765 12.8C3.75679 12.8 3.4394 13.1151 3.4394 13.5032C3.4394 13.8913 3.75679 14.2064 4.14765 14.2064C4.53851 14.2064 4.85583 13.8913 4.85583 13.5032C4.85583 13.1151 4.53851 12.8 4.14765 12.8ZM6.72463 12.8C6.33377 12.8 6.01638 13.1151 6.01638 13.5032C6.01638 13.8913 6.33377 14.2064 6.72463 14.2064C7.11549 14.2064 7.43281 13.8913 7.43281 13.5032C7.43281 13.1151 7.11549 12.8 6.72463 12.8ZM9.30155 12.8C8.91069 12.8 8.59336 13.1151 8.59336 13.5032C8.59336 13.8913 8.91069 14.2064 9.30155 14.2064C9.6924 14.2064 10.0098 13.8913 10.0098 13.5032C10.0098 13.1151 9.6924 12.8 9.30155 12.8ZM11.8786 12.8C11.4877 12.8 11.1703 13.1151 11.1703 13.5032C11.1703 13.8913 11.4877 14.2064 11.8786 14.2064C12.2694 14.2064 12.5868 13.8913 12.5868 13.5032C12.5868 13.1151 12.2694 12.8 11.8786 12.8ZM14.4555 12.8C14.0646 12.8 13.7473 13.1151 13.7473 13.5032C13.7473 13.8913 14.0646 14.2064 14.4555 14.2064C14.8464 14.2064 15.1637 13.8913 15.1637 13.5032C15.1637 13.1151 14.8464 12.8 14.4555 12.8ZM17.0325 12.8C16.6416 12.8 16.3243 13.1151 16.3243 13.5032C16.3243 13.8913 16.6416 14.2064 17.0325 14.2064C17.4233 14.2064 17.7407 13.8913 17.7407 13.5032C17.7407 13.1151 17.4233 12.8 17.0325 12.8ZM19.6095 12.8C19.2186 12.8 18.9013 13.1151 18.9013 13.5032C18.9013 13.8913 19.2186 14.2064 19.6095 14.2064C20.0003 14.2064 20.3177 13.8913 20.3177 13.5032C20.3177 13.1151 20.0003 12.8 19.6095 12.8ZM22.1864 12.8C21.7956 12.8 21.4783 13.1151 21.4783 13.5032C21.4783 13.8913 21.7956 14.2064 22.1864 14.2064C22.5773 14.2064 22.8947 13.8913 22.8947 13.5032C22.8947 13.1151 22.5773 12.8 22.1864 12.8ZM24.7634 12.8C24.3726 12.8 24.0552 13.1151 24.0552 13.5032C24.0552 13.8913 24.3726 14.2064 24.7634 14.2064C25.1543 14.2064 25.4717 13.8913 25.4717 13.5032C25.4717 13.1151 25.1543 12.8 24.7634 12.8ZM27.3404 12.8C26.9495 12.8 26.6322 13.1151 26.6322 13.5032C26.6322 13.8913 26.9495 14.2064 27.3404 14.2064C27.7313 14.2064 28.0486 13.8913 28.0486 13.5032C28.0486 13.1151 27.7313 12.8 27.3404 12.8ZM1.57067 15.3587C1.17981 15.3587 0.862427 15.6738 0.862427 16.0619C0.862427 16.45 1.17981 16.7651 1.57067 16.7651C1.96153 16.7651 2.27885 16.45 2.27885 16.0619C2.27885 15.6738 1.96153 15.3587 1.57067 15.3587ZM4.14765 15.3587C3.75679 15.3587 3.4394 15.6738 3.4394 16.0619C3.4394 16.45 3.75679 16.7651 4.14765 16.7651C4.53851 16.7651 4.85583 16.45 4.85583 16.0619C4.85583 15.6738 4.53851 15.3587 4.14765 15.3587ZM6.72463 15.3587C6.33377 15.3587 6.01638 15.6738 6.01638 16.0619C6.01638 16.45 6.33377 16.7651 6.72463 16.7651C7.11549 16.7651 7.43281 16.45 7.43281 16.0619C7.43281 15.6738 7.11549 15.3587 6.72463 15.3587ZM9.30155 15.3587C8.91069 15.3587 8.59336 15.6738 8.59336 16.0619C8.59336 16.45 8.91069 16.7651 9.30155 16.7651C9.6924 16.7651 10.0098 16.45 10.0098 16.0619C10.0098 15.6738 9.6924 15.3587 9.30155 15.3587ZM11.8786 15.3587C11.4877 15.3587 11.1703 15.6738 11.1703 16.0619C11.1703 16.45 11.4877 16.7651 11.8786 16.7651C12.2694 16.7651 12.5868 16.45 12.5868 16.0619C12.5868 15.6738 12.2694 15.3587 11.8786 15.3587ZM14.4555 15.3587C14.0646 15.3587 13.7473 15.6738 13.7473 16.0619C13.7473 16.45 14.0646 16.7651 14.4555 16.7651C14.8464 16.7651 15.1637 16.45 15.1637 16.0619C15.1637 15.6738 14.8464 15.3587 14.4555 15.3587ZM17.0325 15.3587C16.6416 15.3587 16.3243 15.6738 16.3243 16.0619C16.3243 16.45 16.6416 16.7651 17.0325 16.7651C17.4233 16.7651 17.7407 16.45 17.7407 16.0619C17.7407 15.6738 17.4233 15.3587 17.0325 15.3587ZM19.6095 15.3587C19.2186 15.3587 18.9013 15.6738 18.9013 16.0619C18.9013 16.45 19.2186 16.7651 19.6095 16.7651C20.0003 16.7651 20.3177 16.45 20.3177 16.0619C20.3177 15.6738 20.0003 15.3587 19.6095 15.3587ZM22.1864 15.3587C21.7956 15.3587 21.4783 15.6738 21.4783 16.0619C21.4783 16.45 21.7956 16.7651 22.1864 16.7651C22.5773 16.7651 22.8947 16.45 22.8947 16.0619C22.8947 15.6738 22.5773 15.3587 22.1864 15.3587ZM24.7634 15.3587C24.3726 15.3587 24.0552 15.6738 24.0552 16.0619C24.0552 16.45 24.3726 16.7651 24.7634 16.7651C25.1543 16.7651 25.4717 16.45 25.4717 16.0619C25.4717 15.6738 25.1543 15.3587 24.7634 15.3587ZM27.3404 15.3587C26.9495 15.3587 26.6322 15.6738 26.6322 16.0619C26.6322 16.45 26.9495 16.7651 27.3404 16.7651C27.7313 16.7651 28.0486 16.45 28.0486 16.0619C28.0486 15.6738 27.7313 15.3587 27.3404 15.3587ZM4.14765 17.9174C3.75675 17.9174 3.43935 18.2325 3.43935 18.6206C3.43935 19.0088 3.75675 19.3239 4.14765 19.3239C4.53854 19.3239 4.85589 19.0088 4.85589 18.6206C4.85589 18.2325 4.53854 17.9174 4.14765 17.9174ZM24.7634 17.9174C24.3725 17.9174 24.0552 18.2325 24.0552 18.6206C24.0552 19.0088 24.3725 19.3239 24.7634 19.3239C25.1543 19.3239 25.4717 19.0088 25.4717 18.6206C25.4717 18.2325 25.1543 17.9174 24.7634 17.9174ZM6.72463 17.9174C6.33377 17.9174 6.01638 18.2325 6.01638 18.6206C6.01638 19.0087 6.33377 19.3238 6.72463 19.3238C7.11549 19.3238 7.43281 19.0087 7.43281 18.6206C7.43281 18.2325 7.11549 17.9174 6.72463 17.9174ZM9.30155 17.9174C8.91069 17.9174 8.59336 18.2325 8.59336 18.6206C8.59336 19.0087 8.91069 19.3238 9.30155 19.3238C9.6924 19.3238 10.0098 19.0087 10.0098 18.6206C10.0098 18.2325 9.6924 17.9174 9.30155 17.9174ZM11.8786 17.9174C11.4877 17.9174 11.1703 18.2325 11.1703 18.6206C11.1703 19.0087 11.4877 19.3238 11.8786 19.3238C12.2694 19.3238 12.5868 19.0087 12.5868 18.6206C12.5868 18.2325 12.2694 17.9174 11.8786 17.9174ZM14.4555 17.9174C14.0646 17.9174 13.7473 18.2325 13.7473 18.6206C13.7473 19.0087 14.0646 19.3238 14.4555 19.3238C14.8464 19.3238 15.1637 19.0087 15.1637 18.6206C15.1637 18.2325 14.8464 17.9174 14.4555 17.9174ZM17.0325 17.9174C16.6416 17.9174 16.3243 18.2325 16.3243 18.6206C16.3243 19.0087 16.6416 19.3238 17.0325 19.3238C17.4233 19.3238 17.7407 19.0087 17.7407 18.6206C17.7407 18.2325 17.4233 17.9174 17.0325 17.9174ZM19.6095 17.9174C19.2186 17.9174 18.9013 18.2325 18.9013 18.6206C18.9013 19.0087 19.2186 19.3238 19.6095 19.3238C20.0003 19.3238 20.3177 19.0087 20.3177 18.6206C20.3177 18.2325 20.0003 17.9174 19.6095 17.9174ZM22.1864 17.9174C21.7956 17.9174 21.4783 18.2325 21.4783 18.6206C21.4783 19.0087 21.7956 19.3238 22.1864 19.3238C22.5773 19.3238 22.8947 19.0087 22.8947 18.6206C22.8947 18.2325 22.5773 17.9174 22.1864 17.9174ZM4.14765 20.4751C3.7562 20.4751 3.43835 20.7907 3.43835 21.1794C3.43835 21.568 3.7562 21.8836 4.14765 21.8836C4.53909 21.8836 4.85689 21.568 4.85689 21.1794C4.85689 20.7907 4.53909 20.4751 4.14765 20.4751ZM24.7634 20.4751C24.372 20.4751 24.0542 20.7907 24.0542 21.1794C24.0542 21.568 24.372 21.8836 24.7634 21.8836C25.1549 21.8836 25.4727 21.568 25.4727 21.1794C25.4727 20.7907 25.1549 20.4751 24.7634 20.4751ZM6.72463 20.4761C6.33371 20.4761 6.01627 20.7912 6.01627 21.1794C6.01627 21.5675 6.33371 21.8826 6.72463 21.8826C7.11555 21.8826 7.43293 21.5675 7.43293 21.1794C7.43293 20.7912 7.11555 20.4761 6.72463 20.4761ZM22.1864 20.4761C21.7955 20.4761 21.4781 20.7912 21.4781 21.1794C21.4781 21.5675 21.7955 21.8826 22.1864 21.8826C22.5774 21.8826 22.8947 21.5675 22.8947 21.1794C22.8947 20.7912 22.5774 20.4761 22.1864 20.4761ZM9.30155 20.4762C8.91069 20.4762 8.59336 20.7913 8.59336 21.1794C8.59336 21.5675 8.91069 21.8826 9.30155 21.8826C9.6924 21.8826 10.0098 21.5675 10.0098 21.1794C10.0098 20.7913 9.6924 20.4762 9.30155 20.4762ZM11.8786 20.4762C11.4877 20.4762 11.1703 20.7913 11.1703 21.1794C11.1703 21.5675 11.4877 21.8826 11.8786 21.8826C12.2694 21.8826 12.5868 21.5675 12.5868 21.1794C12.5868 20.7913 12.2694 20.4762 11.8786 20.4762ZM14.4555 20.4762C14.0646 20.4762 13.7473 20.7913 13.7473 21.1794C13.7473 21.5675 14.0646 21.8826 14.4555 21.8826C14.8464 21.8826 15.1637 21.5675 15.1637 21.1794C15.1637 20.7913 14.8464 20.4762 14.4555 20.4762ZM17.0325 20.4762C16.6416 20.4762 16.3243 20.7913 16.3243 21.1794C16.3243 21.5675 16.6416 21.8826 17.0325 21.8826C17.4233 21.8826 17.7407 21.5675 17.7407 21.1794C17.7407 20.7913 17.4233 20.4762 17.0325 20.4762ZM19.6095 20.4762C19.2186 20.4762 18.9013 20.7913 18.9013 21.1794C18.9013 21.5675 19.2186 21.8826 19.6095 21.8826C20.0003 21.8826 20.3177 21.5675 20.3177 21.1794C20.3177 20.7913 20.0003 20.4762 19.6095 20.4762ZM6.72463 23.0338C6.33318 23.0338 6.01533 23.3494 6.01533 23.7381C6.01533 24.1268 6.33318 24.4423 6.72463 24.4423C7.11607 24.4423 7.43387 24.1268 7.43387 23.7381C7.43387 23.3494 7.11607 23.0338 6.72463 23.0338ZM22.1864 23.0338C21.795 23.0338 21.4772 23.3494 21.4772 23.7381C21.4772 24.1268 21.795 24.4423 22.1864 24.4423C22.5779 24.4423 22.8957 24.1268 22.8957 23.7381C22.8957 23.3494 22.5779 23.0338 22.1864 23.0338ZM9.30155 23.0348C8.91065 23.0348 8.5933 23.35 8.5933 23.7381C8.5933 24.1262 8.91065 24.4413 9.30155 24.4413C9.69244 24.4413 10.0098 24.1262 10.0098 23.7381C10.0098 23.35 9.69244 23.0348 9.30155 23.0348ZM19.6095 23.0348C19.2186 23.0348 18.9012 23.35 18.9012 23.7381C18.9012 24.1262 19.2186 24.4413 19.6095 24.4413C20.0004 24.4413 20.3178 24.1262 20.3178 23.7381C20.3178 23.35 20.0004 23.0348 19.6095 23.0348ZM11.8786 23.0349C11.4877 23.0349 11.1703 23.35 11.1703 23.7381C11.1703 24.1262 11.4877 24.4413 11.8786 24.4413C12.2694 24.4413 12.5868 24.1262 12.5868 23.7381C12.5868 23.35 12.2694 23.0349 11.8786 23.0349ZM14.4555 23.0349C14.0646 23.0349 13.7473 23.35 13.7473 23.7381C13.7473 24.1262 14.0646 24.4413 14.4555 24.4413C14.8464 24.4413 15.1637 24.1262 15.1637 23.7381C15.1637 23.35 14.8464 23.0349 14.4555 23.0349ZM17.0325 23.0349C16.6416 23.0349 16.3243 23.35 16.3243 23.7381C16.3243 24.1262 16.6416 24.4413 17.0325 24.4413C17.4233 24.4413 17.7407 24.1262 17.7407 23.7381C17.7407 23.35 17.4233 23.0349 17.0325 23.0349ZM11.8801 25.5934C11.4894 25.5934 11.1722 25.9083 11.1722 26.2962C11.1722 26.6841 11.4894 26.999 11.8801 26.999C12.2707 26.999 12.5879 26.6841 12.5879 26.2962C12.5879 25.9083 12.2707 25.5934 11.8801 25.5934ZM14.4555 25.5936C14.0646 25.5936 13.7473 25.9087 13.7473 26.2968C13.7473 26.6849 14.0646 27 14.4555 27C14.8464 27 15.1637 26.6849 15.1637 26.2968C15.1637 25.9087 14.8464 25.5936 14.4555 25.5936ZM17.0325 25.5936C16.6416 25.5936 16.3243 25.9087 16.3243 26.2968C16.3243 26.6849 16.6416 27 17.0325 27C17.4233 27 17.7407 26.6849 17.7407 26.2968C17.7407 25.9087 17.4233 25.5936 17.0325 25.5936Z" fill="white"/>
<path d="M105.773 10.8062C105.731 10.8061 105.687 10.8072 105.644 10.8081H105.635C104.548 10.8409 103.417 11.2606 102.763 11.9086C102.608 12.0629 102.474 12.2382 102.364 12.4234C102.089 12.8833 101.945 13.4136 101.945 13.9465C101.945 14.0003 101.946 14.0542 101.949 14.1081C101.984 14.8081 102.254 15.4816 102.763 15.9872C103.377 16.5958 104.249 16.962 105.208 17.0651C106.126 17.1637 107.068 17.003 107.713 16.6033C108.35 16.2083 108.792 15.5436 108.943 14.8135C108.946 14.7991 108.948 14.7826 108.952 14.7679L108.205 14.768C108.086 15.2016 107.685 15.6981 107.306 15.8971C106.953 16.0818 106.498 16.2776 105.771 16.2667C105.759 16.2665 105.655 16.2631 105.614 16.2603C105.491 16.2521 105.37 16.2357 105.251 16.2074C104.829 16.1073 104.443 15.8997 104.154 15.5867C103.77 15.1692 103.567 14.5765 103.567 13.9468C103.567 13.3152 103.77 12.7239 104.154 12.3022C104.544 11.8755 105.12 11.656 105.723 11.6442H105.753H105.834C106.501 11.6552 106.889 11.7518 107.388 12.0284C107.703 12.2029 108.145 12.7055 108.239 13.2175H108.929V11.1511H108.212V11.3728C108.212 11.4112 108.194 11.454 108.159 11.4759C108.125 11.496 108.077 11.4988 108.014 11.4632C107.703 11.2887 106.883 10.8081 105.773 10.8062ZM36.3384 10.8152C35.7068 10.8116 34.9873 10.9504 34.3816 11.2461C33.8179 11.5213 33.3534 11.9662 33.3534 12.7063C33.3534 13.3689 33.74 13.7586 33.7279 13.7458C33.8943 13.911 34.1581 14.1956 34.8483 14.359C35.1554 14.4317 35.8133 14.5434 36.4724 14.6247C37.1218 14.7048 37.7657 14.7706 38.0277 14.8409C38.2371 14.897 38.5814 14.9797 38.5814 15.4059C38.5814 15.8358 38.2152 15.9635 38.1503 15.9918C38.085 16.0203 37.6468 16.24 36.8528 16.24C36.2676 16.24 35.5665 16.0483 35.3093 15.9524C35.0141 15.8425 34.7075 15.6797 34.4179 15.2919C34.3464 15.1962 34.2354 14.9331 34.2354 14.673H33.5133V16.8715H34.3109V16.574C34.3109 16.5448 34.3526 16.4025 34.4829 16.471C34.6479 16.5576 35.137 16.7647 35.6509 16.8825C36.0679 16.978 36.3384 17.0459 36.8574 17.0459C37.7079 17.0459 38.164 16.8953 38.4776 16.7967C38.7799 16.7018 39.1467 16.533 39.4408 16.2747C39.6015 16.1336 39.955 15.7736 39.955 15.1183C39.955 14.4877 39.6499 14.0962 39.5389 13.9794C39.3876 13.8203 39.2129 13.6919 39.0242 13.5952C38.8588 13.5104 38.6012 13.4091 38.3905 13.3543C37.9763 13.2467 37.0499 13.1042 36.6088 13.0559C36.1434 13.0048 35.3345 12.9272 35.0146 12.8186C34.9157 12.785 34.7143 12.6798 34.7143 12.4279C34.7143 12.2491 34.809 12.0939 34.9873 11.968C35.2685 11.7693 35.8535 11.653 36.4523 11.653C37.1665 11.653 37.7682 11.8245 38.1503 12.0126C38.2835 12.0781 38.4333 12.1706 38.5556 12.2792C38.6933 12.4016 38.8828 12.6552 38.953 13.0084H39.598V11.0945H38.8804V11.3163C38.8804 11.3902 38.8128 11.4806 38.6826 11.4067C38.3597 11.2233 37.454 10.8216 36.3384 10.8152ZM44.9653 10.8152C43.8389 10.8152 42.6383 11.2415 41.958 11.9178C41.4165 12.456 41.1384 13.2065 41.1384 13.9557C41.1384 14.7132 41.4089 15.4516 41.958 15.9964C42.6885 16.7212 43.786 17.1051 44.9653 17.1051C46.151 17.1051 47.2705 16.7219 47.9802 15.9964C48.5075 15.4573 48.7878 14.6831 48.7878 13.9557C48.7878 13.2028 48.5246 12.4635 47.9802 11.9214C47.2177 11.162 46.2198 10.8152 44.9653 10.8152ZM92.3313 10.8152C91.7008 10.8116 90.9812 10.9504 90.3756 11.2461C89.8116 11.5215 89.3467 11.9662 89.3467 12.7063C89.3467 13.3688 89.7334 13.7439 89.7217 13.7302C89.8874 13.8972 90.1515 14.1619 90.8421 14.3244C91.1491 14.3966 91.8141 14.4978 92.473 14.5782C93.1221 14.6573 93.7591 14.7488 94.0215 14.8181C94.2309 14.8735 94.5745 14.9797 94.5745 15.4059C94.5745 15.8358 94.2089 15.9626 94.1447 15.9918C94.0787 16.0219 93.6407 16.24 92.8469 16.24C92.2614 16.24 91.5601 16.0484 91.3027 15.9516C91.0079 15.8408 90.7003 15.6797 90.4113 15.2919C90.3395 15.1955 90.2289 14.9322 90.2289 14.673H89.5076V16.8715H90.3047V16.574C90.3047 16.5448 90.3464 16.4025 90.4755 16.471C90.6415 16.559 91.1302 16.7647 91.645 16.8825C92.0622 16.9779 92.3314 17.0449 92.8511 17.0449C93.7016 17.0449 94.1572 16.8944 94.4712 16.7967C94.7746 16.7024 95.1401 16.533 95.435 16.2747C95.5954 16.1341 95.948 15.7736 95.948 15.1183C95.948 14.4877 95.6432 14.1218 95.5324 14.005C95.3818 13.8461 95.2067 13.7276 95.0177 13.6308C94.8518 13.5459 94.6112 13.4647 94.4013 13.4108C93.9862 13.3043 93.0426 13.1579 92.602 13.1096C92.1368 13.0585 91.3301 12.9592 91.0102 12.8505C90.9108 12.8167 90.7087 12.6798 90.7087 12.4279C90.7087 12.249 90.8028 12.0939 90.9811 11.968C91.2626 11.7692 91.8474 11.653 92.4454 11.653C93.1601 11.653 93.7607 11.8245 94.1447 12.0126C94.2747 12.0829 94.4271 12.1706 94.5496 12.2792C94.6868 12.4009 94.8761 12.6552 94.946 13.0084H95.5908V11.0946H94.8744V11.3163C94.8744 11.3902 94.8069 11.4806 94.6753 11.4067C94.3526 11.2255 93.4467 10.8216 92.3313 10.8152ZM97.3251 11.1694V11.8685H98.0029C98.2927 11.8685 98.2763 12.1151 98.2763 12.1151L98.268 15.8118C98.268 15.8118 98.2839 16.0584 97.9933 16.0584H97.3159V16.7565H100.872V16.0584H100.162C99.8709 16.0584 99.8867 15.8101 99.8867 15.8101L99.8784 12.1151C99.8784 12.1151 99.8619 11.8685 100.152 11.8685H100.863V11.1694H97.3251ZM58.1437 11.171V11.8655H58.7693C59.0417 11.8655 59.2166 12.0551 59.3202 12.1767C59.4027 12.2734 61.1909 14.4991 61.2349 14.5606C61.2786 14.6217 61.2786 14.6317 61.2786 14.659V15.7973C61.2786 16.0764 61.0103 16.0582 61.0103 16.0582H60.327V16.7564H63.822V16.0563H63.0939C63.0939 16.0563 62.8368 16.076 62.8368 15.8101V14.6827C62.8368 14.6827 62.834 14.5894 62.8617 14.5543C62.91 14.4932 64.7214 12.2329 64.8013 12.1322C64.9758 11.9122 65.0707 11.8657 65.3044 11.8657H65.947V11.1713H63.0674V11.8657H63.4988C63.6271 11.8657 63.6621 12.0072 63.6067 12.0829L62.3873 13.6451H62.3484L61.1573 12.0828C61.0703 11.966 61.1407 11.8655 61.2349 11.8655H61.658V11.171H58.1437ZM73.0456 11.1711L69.7562 11.1712V11.8675H70.3133C70.7157 11.8675 70.7441 12.1129 70.7441 12.3265V15.5947C70.7441 15.7927 70.7558 16.0583 70.4975 16.0583H69.807V16.7564H72.5782V16.0583H72.0344C71.7486 16.0583 71.7328 15.9177 71.7278 15.6083L71.7295 12.0509H71.7545L73.6928 16.7583H74.7848L76.7064 12.0509H76.7322L76.7556 15.6083C76.7498 15.9177 76.7348 16.0583 76.4499 16.0583H75.9051V16.7564H79.2636V16.0583H78.5732C78.3158 16.0583 78.3266 15.7927 78.3266 15.5947L78.3099 12.3265C78.3099 12.1129 78.3374 11.8675 78.7406 11.8675H79.2978V11.1712L76.0685 11.1711L74.555 14.8235L73.0456 11.1711ZM49.5737 11.1712V11.8675H50.1313C50.5332 11.8675 50.5621 12.1129 50.5621 12.3265V15.5947C50.5621 15.7927 50.5736 16.0583 50.3154 16.0583H49.6246V16.7564H52.5687V16.0583H51.851C51.5657 16.0583 51.5504 15.9177 51.5454 15.6083V12.8102L55.5827 16.7564H56.609L56.5544 12.2992C56.5619 11.9761 56.5785 11.8656 56.883 11.8656H57.5273V11.1712H54.5312V11.8656H55.1908C55.4898 11.8656 55.5431 11.997 55.5457 12.2992L55.5827 14.6319L52.0796 11.1712H49.5737ZM80.2758 11.1712V11.8656H80.8964C81.1962 11.8656 81.2494 11.997 81.2519 12.2992H81.2528V14.9969C81.2528 16.7893 82.9496 17.106 84.4056 17.106C85.8908 17.106 87.3278 16.773 87.3278 15.0526L87.3169 12.1386C87.3327 11.9388 87.3901 11.8656 87.6375 11.8656H88.2823V11.1712H85.3152V11.8656H85.905C86.1924 11.8656 86.2524 11.9879 86.259 12.2653L86.2565 15.0772C86.2565 15.7262 86.0407 16.4353 84.4056 16.4353C82.8755 16.4353 82.9404 15.2789 82.9404 15.0836V12.2618C82.9488 11.9679 82.9763 11.8656 83.2687 11.8656H83.8959V11.1712H80.2758ZM44.9653 11.6339C45.5842 11.6339 46.1805 11.8812 46.5799 12.3111C46.9701 12.731 47.171 13.3177 47.171 13.9556C47.171 14.6154 46.984 15.153 46.5799 15.5947C46.1762 16.0362 45.5967 16.2746 44.9653 16.2746C44.3458 16.2746 43.7517 16.0328 43.3489 15.5947C42.9644 15.1765 42.761 14.5844 42.761 13.9556C42.761 13.3241 42.9643 12.7318 43.3489 12.3111C43.7484 11.874 44.3458 11.6339 44.9653 11.6339Z" fill="white"/>
</svg>
